# 3ds Max Wavefront OBJ Exporter v0.97b - (c)2007 guruware
# File Created: 29.05.2016 16:34:23

mtllib smallgarage.mtl

#
# object Body
#

v  385.0000 0.0000 -250.0000
v  -385.0000 0.0000 -250.0000
v  -385.0000 0.0000 250.0000
v  385.0000 0.0000 250.0000
v  400.0000 300.0000 -250.0000
v  385.0000 300.0000 -250.0000
v  385.0000 300.0000 250.0000
v  400.0000 300.0000 250.0000
v  -400.0000 300.0000 250.0000
v  -385.0000 300.0000 250.0000
v  -385.0000 300.0000 -250.0000
v  -400.0000 300.0000 -250.0000
v  385.0000 300.0000 -350.0000
v  -385.0000 300.0000 -350.0000
v  -385.0000 300.0000 -335.0000
v  385.0000 300.0000 -335.0000
v  -385.0000 300.0000 350.0000
v  385.0000 300.0000 350.0000
v  385.0000 300.0000 335.0000
v  -385.0000 300.0000 335.0000
v  400.0000 300.0000 -350.0000
v  400.0000 300.0000 -335.0000
v  400.0000 300.0000 350.0000
v  400.0000 300.0000 335.0000
v  -400.0000 300.0000 350.0000
v  -400.0000 300.0000 335.0000
v  -400.0000 300.0000 -350.0000
v  -400.0000 300.0000 -335.0000
v  -400.0000 0.0000 -335.0000
v  -400.0000 250.0000 -335.0000
v  -400.0000 250.0000 -350.0000
v  -400.0000 0.0000 -350.0000
v  -400.0000 0.0000 250.0000
v  -400.0000 250.0000 250.0000
v  -400.0000 250.0000 -250.0000
v  -400.0000 0.0000 -250.0000
v  -400.0000 0.0000 350.0000
v  -400.0000 250.0000 350.0000
v  -400.0000 250.0000 335.0000
v  -400.0000 0.0000 335.0000
v  -385.0000 0.0000 350.0000
v  -385.0000 250.0000 350.0000
v  385.0000 0.0000 350.0000
v  385.0000 250.0000 350.0000
v  400.0000 0.0000 350.0000
v  400.0000 250.0000 350.0000
v  400.0000 0.0000 335.0000
v  400.0000 250.0000 335.0000
v  400.0000 0.0000 -350.0000
v  400.0000 250.0000 -350.0000
v  400.0000 250.0000 -335.0000
v  400.0000 0.0000 -335.0000
v  385.0000 0.0000 -350.0000
v  385.0000 250.0000 -350.0000
v  -385.0000 0.0000 -350.0000
v  -385.0000 250.0000 -350.0000
v  -385.0000 0.0000 335.0000
v  -385.0000 250.0000 335.0000
v  385.0000 250.0000 335.0000
v  385.0000 0.0000 335.0000
v  -385.0000 250.0000 -250.0000
v  -385.0000 250.0000 250.0000
v  385.0000 0.0000 -335.0000
v  385.0000 250.0000 -335.0000
v  -385.0000 250.0000 -335.0000
v  -385.0000 0.0000 -335.0000
v  400.0000 250.0000 -250.0000
v  400.0000 0.0000 -250.0000
v  400.0000 250.0000 250.0000
v  385.0000 250.0000 250.0000
v  385.0000 250.0000 -250.0000
v  400.0000 0.0000 250.0000
# 72 vertices

vn 0.0000 1.0000 -0.0000
vn -1.0000 0.0000 -0.0000
vn 0.0000 0.0000 1.0000
vn 1.0000 0.0000 -0.0000
vn 0.0000 0.0000 -1.0000
vn -0.0000 0.0000 1.0000
vn -1.0000 0.0000 0.0000
vn 0.0000 -1.0000 -0.0000
# 8 vertex normals

vt 4.2750 3.0000 0.5000
vt -3.4250 3.0000 0.5000
vt -3.4250 -2.0000 0.5000
vt 4.2750 -2.0000 0.5000
vt 2.5000 1.7500 1.2500
vt 2.4250 1.7500 1.2500
vt 2.4250 -0.7500 1.2500
vt 2.5000 -0.7500 1.2500
vt -1.5000 -0.7500 1.2500
vt -1.4250 -0.7500 1.2500
vt -1.4250 1.7500 1.2500
vt -1.5000 1.7500 1.2500
vt 2.4250 2.2500 1.2500
vt -1.4250 2.2500 1.2500
vt -1.4250 2.1750 1.2500
vt 2.4250 2.1750 1.2500
vt -1.4250 -1.2500 1.2500
vt 2.4250 -1.2500 1.2500
vt 2.4250 -1.1750 1.2500
vt -1.4250 -1.1750 1.2500
vt 2.5000 2.2500 1.2500
vt 2.5000 2.1750 1.2500
vt 2.5000 -1.2500 1.2500
vt 2.5000 -1.1750 1.2500
vt -1.5000 -1.2500 1.2500
vt -1.5000 -1.1750 1.2500
vt -1.5000 2.2500 1.2500
vt -1.5000 2.1750 1.2500
vt -0.6167 0.0000 -0.8333
vt -0.6167 0.8333 -0.8333
vt -0.6667 0.8333 -0.8333
vt -0.6667 0.0000 -0.8333
vt 1.3333 0.0000 -0.8333
vt 1.3333 0.8333 -0.8333
vt -0.3333 0.8333 -0.8333
vt -0.3333 0.0000 -0.8333
vt 1.6667 0.0000 -0.8333
vt 1.6667 0.8333 -0.8333
vt 1.6167 0.8333 -0.8333
vt 1.6167 0.0000 -0.8333
vt -0.7833 0.0000 -0.6667
vt -0.7833 0.8333 -0.6667
vt -0.8333 0.8333 -0.6667
vt -0.8333 0.0000 -0.6667
vt 1.7833 0.0000 -0.6667
vt 1.7833 0.8333 -0.6667
vt 1.8333 0.0000 -0.6667
vt 1.8333 0.8333 -0.6667
vt -0.6167 0.0000 1.8333
vt -0.6167 0.8333 1.8333
vt -0.6667 0.8333 1.8333
vt -0.6667 0.0000 1.8333
vt 1.6667 0.0000 1.8333
vt 1.6667 0.8333 1.8333
vt 1.6167 0.8333 1.8333
vt 1.6167 0.0000 1.8333
vt -0.7833 0.0000 1.6667
vt -0.7833 0.8333 1.6667
vt -0.8333 0.8333 1.6667
vt -0.8333 0.0000 1.6667
vt 1.7833 0.0000 1.6667
vt 1.7833 0.8333 1.6667
vt 1.8333 0.0000 1.6667
vt 1.8333 0.8333 1.6667
vt 2.4250 -0.2500 -1.1750
vt 2.4250 1.0000 -1.1750
vt -1.4250 1.0000 -1.1750
vt -1.4250 -0.2500 -1.1750
vt 1.7500 -0.2500 -1.4250
vt 1.7500 1.0000 -1.4250
vt -0.7500 1.0000 -1.4250
vt -0.7500 -0.2500 -1.4250
vt 2.4250 -0.2500 2.1750
vt 2.4250 1.0000 2.1750
vt -1.4250 1.0000 2.1750
vt -1.4250 -0.2500 2.1750
vt 4.2750 3.8500 0.5000
vt -3.4250 3.8500 0.5000
vt -3.4250 -2.8500 0.5000
vt 4.2750 -2.8500 0.5000
vt -0.6167 1.0000 -0.8333
vt -0.3333 1.0000 -0.8333
vt 1.3333 0.8333 1.8333
vt 1.3333 0.0000 1.8333
vt -0.6167 1.0000 1.8333
vt -0.3333 0.8333 1.8333
vt -0.3333 1.0000 1.8333
vt 2.1750 -0.2500 2.4250
vt 2.1750 1.0000 2.4250
vt 1.7500 1.0000 2.4250
vt 1.7500 -0.2500 2.4250
vt -1.1750 1.2500 2.4250
vt -1.1750 1.0000 2.4250
vt -0.7500 1.0000 2.4250
vt -0.7500 1.2500 2.4250
vt 2.1750 -0.2500 -1.4250
vt 2.1750 1.0000 -1.4250
vt -1.1750 1.2500 -1.4250
vt -1.1750 1.0000 -1.4250
vt -0.7500 1.2500 -1.4250
vt -0.6667 1.0000 -0.8333
vt 1.3333 1.0000 -0.8333
vt 1.6667 1.0000 -0.8333
vt 1.6167 1.0000 -0.8333
vt -0.7833 1.0000 -0.6667
vt -0.8333 1.0000 -0.6667
vt 1.7833 1.0000 -0.6667
vt 1.8333 1.0000 -0.6667
vt -0.6667 1.0000 1.8333
vt 1.3333 1.0000 1.8333
vt 1.6667 1.0000 1.8333
vt 1.6167 1.0000 1.8333
vt -0.7833 1.0000 1.6667
vt -0.8333 1.0000 1.6667
vt 1.7833 1.0000 1.6667
vt 1.8333 1.0000 1.6667
vt -0.3333 0.0000 1.8333
vt 1.7500 1.2500 2.4250
vt 2.4250 1.2500 -1.1750
vt -1.4250 1.2500 -1.1750
vt 1.7500 1.2500 -1.4250
vt 2.4250 1.2500 2.1750
vt -1.4250 1.2500 2.1750
vt 2.1750 1.2500 2.4250
vt -1.1750 -0.2500 2.4250
vt -0.7500 -0.2500 2.4250
vt 2.1750 1.2500 -1.4250
vt -1.1750 -0.2500 -1.4250
vt 4.4250 -2.0000 0.5000
vt 4.4250 3.0000 0.5000
vt -1.4250 -0.2500 -0.7500
vt -1.4250 1.0000 -0.7500
vt -1.5000 1.0000 -0.7500
vt -1.5000 -0.2500 -0.7500
vt 0.9592 0.3108 0.0000
vt 0.9592 0.6892 0.0000
vt 2.4250 1.0000 1.7500
vt 2.4250 -0.2500 1.7500
vt 2.5000 -0.2500 1.7500
vt 2.5000 1.0000 1.7500
# 140 texture coords

g Body
usemtl Floor1
s 1
f 1/1/1 2/2/1 3/3/1 4/4/1 
usemtl InteriorWall
f 5/5/1 6/6/1 7/7/1 8/8/1 
f 9/9/1 10/10/1 11/11/1 12/12/1 
f 13/13/1 14/14/1 15/15/1 16/16/1 
f 17/17/1 18/18/1 19/19/1 20/20/1 
f 21/21/1 13/13/1 16/16/1 22/22/1 
f 18/18/1 23/23/1 24/24/1 19/19/1 
f 25/25/1 17/17/1 20/20/1 26/26/1 
f 14/14/1 27/27/1 28/28/1 15/15/1 
usemtl Wall1
s off
f 29/29/2 30/30/2 31/31/2 32/32/2 
f 33/33/2 34/34/2 35/35/2 36/36/2 
f 37/37/2 38/38/2 39/39/2 40/40/2 
f 41/41/3 42/42/3 38/43/3 37/44/3 
f 43/45/3 44/46/3 42/42/3 41/41/3 
f 45/47/3 46/48/3 44/46/3 43/45/3 
f 47/49/4 48/50/4 46/51/4 45/52/4 
f 49/53/4 50/54/4 51/55/4 52/56/4 
f 53/57/5 54/58/5 50/59/5 49/60/5 
f 55/61/5 56/62/5 54/58/5 53/57/5 
f 32/63/5 31/64/5 56/62/5 55/61/5 
usemtl InteriorWall
f 57/65/5 58/66/5 59/67/5 60/68/5 
f 2/69/4 61/70/4 62/71/4 3/72/4 
f 63/73/6 64/74/6 65/75/6 66/76/6 
usemtl Floor1
s 1
f 63/77/1 66/78/1 2/2/1 1/1/1 
f 57/79/1 60/80/1 4/4/1 3/3/1 
usemtl InteriorWall
f 22/22/1 16/16/1 6/6/1 5/5/1 
f 19/19/1 24/24/1 8/8/1 7/7/1 
f 26/26/1 20/20/1 10/10/1 9/9/1 
f 15/15/1 28/28/1 12/12/1 11/11/1 
usemtl Wall1
s off
f 40/40/2 39/39/2 34/34/2 33/33/2 
f 28/81/2 30/30/2 35/35/2 12/82/2 
f 52/56/4 51/55/4 67/83/4 68/84/4 
f 24/85/4 48/50/4 69/86/4 8/87/4 
usemtl InteriorWall
f 60/88/2 59/89/2 70/90/2 4/91/2 
f 16/92/2 64/93/2 71/94/2 6/95/2 
f 66/96/4 65/97/4 61/70/4 2/69/4 
f 20/98/4 58/99/4 62/71/4 10/100/4 
usemtl Wall1
f 28/81/2 27/101/2 31/31/2 30/30/2 
f 9/102/2 12/82/2 35/35/2 34/34/2 
f 25/103/2 26/104/2 39/39/2 38/38/2 
f 17/105/3 25/106/3 38/43/3 42/42/3 
f 18/107/3 17/105/3 42/42/3 44/46/3 
f 23/108/3 18/107/3 44/46/3 46/48/3 
f 24/85/4 23/109/4 46/51/4 48/50/4 
f 5/110/4 8/87/4 69/86/4 67/83/4 
f 21/111/4 22/112/4 51/55/4 50/54/4 
f 13/113/5 21/114/5 50/59/5 54/58/5 
f 14/115/5 13/113/5 54/58/5 56/62/5 
f 27/116/5 14/115/5 56/62/5 31/64/5 
f 26/104/2 9/102/2 34/34/2 39/39/2 
f 29/29/2 36/36/2 35/35/2 30/30/2 
f 22/112/4 5/110/4 67/83/4 51/55/4 
f 47/49/4 72/117/4 69/86/4 48/50/4 
usemtl InteriorWall
f 7/118/7 6/95/7 71/94/7 70/90/7 
f 20/119/5 19/120/5 59/67/5 58/66/5 
f 11/121/4 10/100/4 62/71/4 61/70/4 
f 16/122/6 15/123/6 65/75/6 64/74/6 
f 19/124/2 7/118/2 70/90/2 59/89/2 
f 63/125/2 1/126/2 71/94/2 64/93/2 
f 15/127/4 11/121/4 61/70/4 65/97/4 
f 57/128/4 3/72/4 62/71/4 58/99/4 
usemtl Floor1
f 1/1/1 4/4/1 72/129/1 68/130/1 
usemtl InteriorWall
f 4/131/5 70/132/5 69/133/5 72/134/5 
usemtl Material__25
f 70/135/8 71/136/8 67/136/8 69/135/8 
usemtl InteriorWall
f 71/137/6 1/138/6 68/139/6 67/140/6 
# 65 polygons

#
# object Roof
#

v  -400.0000 300.0000 350.0000
v  -400.0000 300.0000 -350.0000
v  400.0000 300.0000 -350.0000
v  400.0000 300.0000 350.0000
v  -400.0000 310.0000 350.0000
v  400.0000 310.0000 350.0000
v  400.0000 310.0000 -350.0000
v  -400.0000 310.0000 -350.0000
# 8 vertices

vn 0.0000 -1.0000 -0.0000
vn 0.0000 1.0000 -0.0000
vn 0.0000 0.0000 1.0000
vn 1.0000 0.0000 -0.0000
vn 0.0000 0.0000 -1.0000
vn -1.0000 0.0000 -0.0000
# 6 vertex normals

vt 2.5000 -1.2500 0.4750
vt 2.5000 2.2500 0.4750
vt -1.5000 2.2500 0.4750
vt -1.5000 -1.2500 0.4750
vt -1.5000 -1.2500 0.5250
vt 2.5000 -1.2500 0.5250
vt 2.5000 2.2500 0.5250
vt -1.5000 2.2500 0.5250
vt -1.5000 0.4750 -1.2500
vt 2.5000 0.4750 -1.2500
vt 2.5000 0.5250 -1.2500
vt -1.5000 0.5250 -1.2500
vt -1.2500 0.4750 2.5000
vt 2.2500 0.4750 2.5000
vt 2.2500 0.5250 2.5000
vt -1.2500 0.5250 2.5000
vt -1.5000 0.4750 2.2500
vt 2.5000 0.4750 2.2500
vt 2.5000 0.5250 2.2500
vt -1.5000 0.5250 2.2500
vt -1.2500 0.4750 -1.5000
vt 2.2500 0.4750 -1.5000
vt 2.2500 0.5250 -1.5000
vt -1.2500 0.5250 -1.5000
# 24 texture coords

g Roof
usemtl RoofConcrete
s 2
f 73/141/9 74/142/9 75/143/9 76/144/9 
s 4
f 77/145/10 78/146/10 79/147/10 80/148/10 
s 8
f 73/149/11 76/150/11 78/151/11 77/152/11 
s 16
f 76/153/12 75/154/12 79/155/12 78/156/12 
s 32
f 75/157/13 74/158/13 80/159/13 79/160/13 
s 64
f 74/161/14 73/162/14 77/163/14 80/164/14 
# 6 polygons

#
# object Door
#

v  391.0000 0.0000 250.0000
v  391.0000 0.0000 -250.0000
v  394.0000 0.0000 -250.0000
v  394.0000 0.0000 250.0000
v  391.0000 250.0000 250.0000
v  394.0000 250.0000 250.0000
v  394.0000 250.0000 -250.0000
v  391.0000 250.0000 -250.0000
# 8 vertices

vn 0.0000 -1.0000 -0.0000
vn 0.0000 1.0000 -0.0000
vn 0.0000 0.0000 1.0000
vn 1.0000 0.0000 -0.0000
vn 0.0000 0.0000 -1.0000
vn -1.0000 0.0000 -0.0000
# 6 vertex normals

vt 1.0000 0.0000 0.0000
vt 1.0000 1.0000 0.0000
vt 0.0000 1.0000 0.0000
vt 0.0000 0.0000 0.0000
# 4 texture coords

g Door
usemtl GarageDoor
s 2
f 81/165/15 82/166/15 83/167/15 84/168/15 
s 4
f 85/168/16 86/165/16 87/166/16 88/167/16 
s 8
f 81/168/17 84/165/17 86/166/17 85/167/17 
s 16
f 84/168/18 83/165/18 87/166/18 86/167/18 
s 32
f 83/168/19 82/165/19 88/166/19 87/167/19 
s 64
f 82/168/20 81/165/20 85/166/20 88/167/20 
# 6 polygons

